<?xml version="1.0" encoding="UTF-8" standalone="no"?>
<svg
   xmlns:dc="http://purl.org/dc/elements/1.1/"
   xmlns:cc="http://creativecommons.org/ns#"
   xmlns:rdf="http://www.w3.org/1999/02/22-rdf-syntax-ns#"
   xmlns:svg="http://www.w3.org/2000/svg"
   xmlns="http://www.w3.org/2000/svg"
   xmlns:sodipodi="http://sodipodi.sourceforge.net/DTD/sodipodi-0.dtd"
   xmlns:inkscape="http://www.inkscape.org/namespaces/inkscape"
   width="318pt"
   height="158pt"
   viewBox="0 0 318 158"
   version="1.1"
   id="svg13"
   sodipodi:docname="Haldia_Petrochemicals_Logo.svg"
   inkscape:version="0.92.4 (5da689c313, 2019-01-14)">
  <metadata
     id="metadata19">
    <rdf:RDF>
      <cc:Work
         rdf:about="">
        <dc:format>image/svg+xml</dc:format>
        <dc:type
           rdf:resource="http://purl.org/dc/dcmitype/StillImage" />
        <dc:title />
      </cc:Work>
    </rdf:RDF>
  </metadata>
  <defs
     id="defs17" />
  <sodipodi:namedview
     pagecolor="#ffffff"
     bordercolor="#666666"
     borderopacity="1"
     objecttolerance="10"
     gridtolerance="10"
     guidetolerance="10"
     inkscape:pageopacity="0"
     inkscape:pageshadow="2"
     inkscape:window-width="1366"
     inkscape:window-height="705"
     id="namedview15"
     showgrid="false"
     inkscape:zoom="1.3537736"
     inkscape:cx="163.67067"
     inkscape:cy="101.69849"
     inkscape:window-x="-8"
     inkscape:window-y="-8"
     inkscape:window-maximized="1"
     inkscape:current-layer="svg13" />
  <g
     id="#ffffffff" />
  <g
     id="#db241cff">
    <path
       fill="#db241c"
       opacity="1.00"
       d=" M 33.70 23.72 C 48.14 12.24 67.13 6.48 85.50 8.31 C 104.86 10.32 123.36 20.41 134.89 36.18 C 130.75 36.19 126.61 36.07 122.48 36.26 C 113.85 27.76 103.01 21.17 90.98 19.01 C 75.20 15.84 58.18 18.86 44.72 27.76 C 32.11 35.89 22.32 48.57 18.38 63.10 C 13.94 78.17 15.64 95.04 23.31 108.79 C 31.55 123.81 46.54 135.13 63.42 138.41 C 82.71 142.63 104.01 136.92 118.32 123.24 C 122.90 122.82 127.51 122.96 132.10 123.04 C 120.58 136.79 103.98 146.34 86.15 148.74 C 69.23 151.13 51.49 147.25 37.24 137.79 C 15.12 123.63 2.77 95.85 6.98 69.96 C 9.54 51.90 19.31 34.95 33.70 23.72 Z"
       id="path3" />
    <path
       fill="#db241c"
       opacity="1.00"
       d=" M 136.27 122.93 C 191.94 122.97 247.62 122.90 303.29 122.96 L 302.78 124.20 C 301.56 126.41 301.62 129.03 302.52 131.34 C 247.06 131.62 191.59 131.36 136.13 131.47 C 136.23 128.63 136.27 125.78 136.27 122.93 Z"
       id="path5" />
  </g>
  <g
     id="#fb0000ff">
    <path
       fill="#fb0000"
       opacity="1.00"
       d=" M 139.91 27.66 C 195.58 27.73 251.25 27.76 306.92 27.65 C 306.90 30.49 306.90 33.32 306.91 36.16 C 251.25 36.03 195.58 36.11 139.91 36.12 C 139.90 33.30 139.90 30.48 139.91 27.66 Z"
       id="path8" />
    <path
       fill="#fb0000"
       opacity="1.00"
       d=" M 302.52 131.34 C 301.62 129.03 301.56 126.41 302.78 124.20 C 303.23 126.32 303.77 129.70 302.52 131.34 Z"
       id="path10" />
  </g>
  <g
     id="g21">
    <g
       id="g3724">
      <path
         id="text162"
         transform="scale(0.74999999)"
         d="M 46.296875 59.470703 L 46.296875 98.351562 L 57.861328 98.351562 L 57.861328 81.867188 L 74.921875 81.867188 L 74.921875 98.351562 L 86.488281 98.351562 L 86.488281 59.470703 L 74.921875 59.470703 L 74.921875 74.289062 L 57.861328 74.289062 L 57.861328 59.470703 L 46.296875 59.470703 z M 129.33594 59.470703 L 112.72461 98.351562 L 124.34961 98.351562 L 127.20312 91.267578 L 145.28711 91.267578 L 148.11133 98.351562 L 159.73438 98.351562 L 143.12305 59.470703 L 129.33594 59.470703 z M 188.26367 59.470703 L 188.26367 98.351562 L 220.13281 98.351562 L 220.13281 90.773438 L 199.82812 90.773438 L 199.82812 59.470703 L 188.26367 59.470703 z M 248.45508 59.470703 L 248.45508 98.351562 L 260.65234 98.351562 C 267.38092 98.351562 272.42673 97.934896 275.79102 97.101562 C 279.1553 96.250868 282.03835 94.818576 284.44141 92.804688 C 286.54408 91.051215 288.10565 89.027995 289.12695 86.736328 C 290.14825 84.4273 290.66016 81.807075 290.66016 78.873047 C 290.66016 75.973741 290.14825 73.377604 289.12695 71.085938 C 288.10565 68.794271 286.54408 66.77105 284.44141 65.017578 C 282.05837 63.003689 279.19582 61.58138 275.85156 60.748047 C 272.52733 59.897352 267.46102 59.470703 260.65234 59.470703 L 248.45508 59.470703 z M 320.94141 59.470703 L 320.94141 98.351562 L 332.50586 98.351562 L 332.50586 59.470703 L 320.94141 59.470703 z M 375.78125 59.470703 L 359.16992 98.351562 L 370.79492 98.351562 L 373.64844 91.267578 L 391.73242 91.267578 L 394.55469 98.351562 L 406.17969 98.351562 L 389.56836 59.470703 L 375.78125 59.470703 z M 260.02148 67.048828 L 264.16602 67.048828 C 268.91206 67.048828 272.5266 68.056424 275.00977 70.070312 C 277.49293 72.084201 278.73438 75.01888 278.73438 78.873047 C 278.73438 82.744575 277.48366 85.695312 274.98047 87.726562 C 272.49731 89.757813 268.89204 90.773438 264.16602 90.773438 L 260.02148 90.773438 L 260.02148 67.048828 z M 136.24609 68.585938 L 142.37305 84.054688 L 130.08789 84.054688 L 136.24609 68.585938 z M 382.68945 68.585938 L 388.81836 84.054688 L 376.5332 84.054688 L 382.68945 68.585938 z M 137.83789 111.47656 C 134.63334 111.47656 132.01829 113.09375 129.99219 116.32812 C 127.96609 119.54687 126.95313 124.00781 126.95312 129.71094 C 126.95313 132.72656 127.38558 135.58594 128.25391 138.28906 C 129.12224 140.99219 130.39901 143.125 132.08398 144.6875 C 133.76896 146.25 135.68245 147.03125 137.82227 147.03125 C 139.79668 147.03125 141.63615 146.32812 143.3418 144.92188 C 145.04744 143.5 146.36652 141.41406 147.29688 138.66406 C 148.22723 135.91406 148.69141 132.79687 148.69141 129.3125 C 148.69141 125.875 148.24643 122.80469 147.35742 120.10156 C 146.47876 117.38281 145.19669 115.26562 143.51172 113.75 C 141.82675 112.23438 139.93635 111.47656 137.83789 111.47656 z M 162.41406 111.5 C 160.40864 111.5 158.56917 112.19531 156.89453 113.58594 C 155.23023 114.96094 153.94288 116.98438 153.0332 119.65625 C 152.13386 122.3125 151.68359 125.42969 151.68359 129.00781 C 151.68359 132.28906 152.08294 135.35938 152.87891 138.21875 C 153.68521 141.07812 154.8529 143.26563 156.38281 144.78125 C 157.92306 146.28125 159.91726 147.03125 162.36719 147.03125 C 164.73442 147.03125 166.73585 146.05469 168.36914 144.10156 C 170.01276 142.13281 171.14872 139.28125 171.7793 135.54688 L 168.77148 134.39844 C 168.35799 137.28906 167.56655 139.46875 166.39844 140.9375 C 165.23033 142.40625 163.80411 143.14062 162.11914 143.14062 C 160.73395 143.14063 159.4466 142.60156 158.25781 141.52344 C 157.06903 140.44531 156.1916 138.82031 155.62305 136.64844 C 155.06484 134.46094 154.78516 131.90625 154.78516 128.98438 C 154.78516 126.71875 155.02253 124.52344 155.49805 122.39844 C 155.97356 120.25781 156.79673 118.55469 157.96484 117.28906 C 159.14329 116.02344 160.60457 115.39062 162.35156 115.39062 C 163.87114 115.39062 165.13205 115.96094 166.13477 117.10156 C 167.13748 118.24219 167.90249 120.0625 168.42969 122.5625 L 171.39258 121.50781 C 170.78268 118.33594 169.70293 115.875 168.15234 114.125 C 166.60176 112.375 164.68826 111.5 162.41406 111.5 z M 264.81445 111.5 C 262.80903 111.5 260.96956 112.19531 259.29492 113.58594 C 257.63062 114.96094 256.34327 116.98438 255.43359 119.65625 C 254.53425 122.3125 254.08594 125.42969 254.08594 129.00781 C 254.08594 132.28906 254.48333 135.35938 255.2793 138.21875 C 256.0856 141.07812 257.25329 143.26563 258.7832 144.78125 C 260.32345 146.28125 262.3196 147.03125 264.76953 147.03125 C 267.13676 147.03125 269.13625 146.05469 270.76953 144.10156 C 272.41315 142.13281 273.54911 139.28125 274.17969 135.54688 L 271.17188 134.39844 C 270.75838 137.28906 269.96889 139.46875 268.80078 140.9375 C 267.63267 142.40625 266.2045 143.14062 264.51953 143.14062 C 263.13434 143.14063 261.84894 142.60156 260.66016 141.52344 C 259.47137 140.44531 258.59199 138.82031 258.02344 136.64844 C 257.46523 134.46094 257.18555 131.90625 257.18555 128.98438 C 257.18555 126.71875 257.42488 124.52344 257.90039 122.39844 C 258.3759 120.25781 259.19712 118.55469 260.36523 117.28906 C 261.54368 116.02344 263.00691 115.39062 264.75391 115.39062 C 266.27348 115.39062 267.5344 115.96094 268.53711 117.10156 C 269.53982 118.24219 270.30483 120.0625 270.83203 122.5625 L 273.79297 121.50781 C 273.18307 118.33594 272.10332 115.875 270.55273 114.125 C 269.00215 112.375 267.08865 111.5 264.81445 111.5 z M 326.43945 111.5 C 324.90954 111.5 323.51839 111.89063 322.26758 112.67188 C 321.01677 113.45312 320.06726 114.60156 319.41602 116.11719 C 318.76477 117.61719 318.4375 119.23438 318.4375 120.96875 C 318.4375 122.54687 318.70132 123.97656 319.22852 125.25781 C 319.76605 126.52344 320.57865 127.58594 321.66406 128.44531 C 322.50138 129.11719 323.96266 129.83594 326.05078 130.60156 C 328.13891 131.35156 329.48971 131.90625 330.09961 132.26562 C 331.05064 132.8125 331.73104 133.49219 332.14453 134.30469 C 332.55802 135.10156 332.76562 136.03906 332.76562 137.11719 C 332.76563 138.17969 332.5494 139.16406 332.11523 140.07031 C 331.69141 140.96094 331.03882 141.66406 330.16016 142.17969 C 329.28149 142.69531 328.26853 142.95312 327.12109 142.95312 C 325.82894 142.95312 324.66654 142.61719 323.63281 141.94531 C 322.59909 141.25781 321.83408 140.36719 321.33789 139.27344 C 320.85204 138.16406 320.54259 136.75 320.4082 135.03125 L 317.57031 135.40625 C 317.61166 137.70312 318.02492 139.76563 318.81055 141.59375 C 319.60652 143.40625 320.69684 144.76563 322.08203 145.67188 C 323.47756 146.57812 325.20461 147.03125 327.26172 147.03125 C 328.88467 147.03125 330.34066 146.58594 331.63281 145.69531 C 332.93531 144.78906 333.93436 143.53125 334.62695 141.92188 C 335.31955 140.29688 335.66602 138.57031 335.66602 136.74219 C 335.66602 134.89844 335.34932 133.27344 334.71875 131.86719 C 334.08818 130.44531 333.11223 129.27344 331.78906 128.35156 C 330.87938 127.72656 329.19993 127 326.75 126.17188 C 324.31041 125.32813 322.79959 124.50781 322.2207 123.71094 C 321.63148 122.91406 321.33789 121.89844 321.33789 120.66406 C 321.33789 119.24219 321.75114 118.03125 322.57812 117.03125 C 323.41544 116.01563 324.74314 115.50781 326.5625 115.50781 C 328.3095 115.50781 329.62857 116.0625 330.51758 117.17188 C 331.41692 118.28125 331.94455 119.92188 332.09961 122.09375 L 334.98242 121.76562 C 334.93074 119.75 334.55978 117.94531 333.86719 116.35156 C 333.17459 114.75781 332.18083 113.55469 330.88867 112.74219 C 329.60685 111.91406 328.12443 111.5 326.43945 111.5 z M 43.080078 112.08594 L 43.080078 146.44531 L 46.089844 146.44531 L 46.089844 132.47656 L 51.919922 132.47656 C 55.134808 132.47656 57.355804 131.46875 58.585938 129.45312 C 59.816071 127.42188 60.431641 124.94531 60.431641 122.02344 C 60.431641 120.32031 60.199551 118.75781 59.734375 117.33594 C 59.279536 115.91406 58.674541 114.8125 57.919922 114.03125 C 57.165302 113.23438 56.229705 112.69531 55.113281 112.41406 C 54.317313 112.19531 53.165489 112.08594 51.65625 112.08594 L 43.080078 112.08594 z M 64.355469 112.08594 L 64.355469 146.44531 L 81.318359 146.44531 L 81.318359 142.39062 L 67.363281 142.39062 L 67.363281 130.69531 L 79.939453 130.69531 L 79.939453 126.66406 L 67.363281 126.66406 L 67.363281 116.14062 L 80.791016 116.14062 L 80.791016 112.08594 L 64.355469 112.08594 z M 83.798828 112.08594 L 83.798828 116.14062 L 91.289062 116.14062 L 91.289062 146.44531 L 94.296875 146.44531 L 94.296875 116.14062 L 101.81641 116.14062 L 101.81641 112.08594 L 83.798828 112.08594 z M 104.96484 112.08594 L 104.96484 146.44531 L 107.97266 146.44531 L 107.97266 131.1875 L 111.46289 131.1875 C 112.23818 131.1875 112.79559 131.24219 113.13672 131.35156 C 113.6019 131.52344 114.05745 131.82813 114.50195 132.26562 C 114.95679 132.70312 115.46856 133.46875 116.03711 134.5625 C 116.60566 135.65625 117.32836 137.23438 118.20703 139.29688 L 121.21484 146.44531 L 124.99805 146.44531 L 121.04492 137.09375 C 120.25929 135.26563 119.42749 133.74219 118.54883 132.52344 C 118.13534 131.96094 117.53034 131.39062 116.73438 130.8125 C 118.91554 130.35938 120.5282 129.29687 121.57227 127.625 C 122.61633 125.95313 123.13867 123.89844 123.13867 121.46094 C 123.13867 119.57031 122.82198 117.84375 122.19141 116.28125 C 121.56083 114.71875 120.71846 113.63281 119.66406 113.02344 C 118.60966 112.39844 117.06907 112.08594 115.04297 112.08594 L 104.96484 112.08594 z M 175.59375 112.08594 L 175.59375 146.44531 L 178.60156 146.44531 L 178.60156 130.25 L 190.41797 130.25 L 190.41797 146.44531 L 193.42578 146.44531 L 193.42578 112.08594 L 190.41797 112.08594 L 190.41797 126.19531 L 178.60156 126.19531 L 178.60156 112.08594 L 175.59375 112.08594 z M 198.51172 112.08594 L 198.51172 146.44531 L 215.47461 146.44531 L 215.47461 142.39062 L 201.51953 142.39062 L 201.51953 130.69531 L 214.0957 130.69531 L 214.0957 126.66406 L 201.51953 126.66406 L 201.51953 116.14062 L 214.94727 116.14062 L 214.94727 112.08594 L 198.51172 112.08594 z M 219.56836 112.08594 L 219.56836 146.44531 L 222.46875 146.44531 L 222.46875 117.19531 L 229.04297 146.44531 L 231.75586 146.44531 L 238.36133 117.6875 L 238.36133 146.44531 L 241.26172 146.44531 L 241.26172 112.08594 L 237.21484 112.08594 L 231.77148 135.99219 C 231.22361 138.41406 230.82093 140.25 230.5625 141.5 C 230.33508 140.375 229.97275 138.67969 229.47656 136.41406 L 224.0957 112.08594 L 219.56836 112.08594 z M 246.6582 112.08594 L 246.6582 146.44531 L 249.66602 146.44531 L 249.66602 112.08594 L 246.6582 112.08594 z M 284.13477 112.08594 L 275.40625 146.44531 L 278.59961 146.44531 L 281.0957 136.03906 L 290.60156 136.03906 L 293.25195 146.44531 L 296.67969 146.44531 L 287.37695 112.08594 L 284.13477 112.08594 z M 300.79297 112.08594 L 300.79297 146.44531 L 314.99609 146.44531 L 314.99609 142.39062 L 303.80078 142.39062 L 303.80078 112.08594 L 300.79297 112.08594 z M 351.49219 112.08594 L 351.49219 146.44531 L 365.69531 146.44531 L 365.69531 142.39062 L 354.5 142.39062 L 354.5 112.08594 L 351.49219 112.08594 z M 365.23047 112.08594 L 365.23047 116.14062 L 372.7207 116.14062 L 372.7207 146.44531 L 375.72852 146.44531 L 375.72852 116.14062 L 383.24805 116.14062 L 383.24805 112.08594 L 365.23047 112.08594 z M 386.34961 112.08594 L 386.34961 146.44531 L 394.55273 146.44531 C 395.92759 146.44531 397.14287 146.25 398.19727 145.85938 C 399.262 145.46875 400.16587 144.89844 400.91016 144.14844 C 401.66478 143.38281 402.35771 142.34375 402.98828 141.03125 C 403.61885 139.70313 404.13591 138.03125 404.53906 136.01562 C 404.94222 134 405.14258 131.6875 405.14258 129.07812 C 405.14258 126.01563 404.8437 123.29687 404.24414 120.92188 C 403.65492 118.53125 402.75967 116.57031 401.56055 115.03906 C 400.64053 113.85156 399.52906 113.03125 398.22656 112.57812 C 397.29621 112.25 395.94736 112.08594 394.17969 112.08594 L 386.34961 112.08594 z M 137.85352 115.39062 C 139.35242 115.39062 140.70127 115.96875 141.90039 117.125 C 143.10985 118.26562 144.0243 119.88281 144.64453 121.97656 C 145.2751 124.05469 145.58984 126.49219 145.58984 129.28906 C 145.58984 133.71094 144.85656 137.125 143.38867 139.53125 C 141.93112 141.9375 140.0705 143.14062 137.80664 143.14062 C 135.58413 143.14062 133.73409 141.95312 132.25586 139.57812 C 130.78797 137.1875 130.05273 133.92187 130.05273 129.78125 C 130.05273 124.60938 130.81774 120.92187 132.34766 118.71875 C 133.88791 116.5 135.72404 115.39062 137.85352 115.39062 z M 285.68555 115.69531 C 286.03701 117.55469 286.57522 119.92969 287.29883 122.82031 L 289.67188 132.33594 L 281.96484 132.33594 L 284.46094 122.25781 C 284.98814 120.08594 285.3961 117.89844 285.68555 115.69531 z M 107.97266 115.88281 L 115.16797 115.88281 C 116.85294 115.88281 118.08213 116.40625 118.85742 117.45312 C 119.64305 118.5 120.03711 119.83594 120.03711 121.46094 C 120.03711 122.57031 119.83479 123.60156 119.43164 124.55469 C 119.02849 125.49219 118.43936 126.17969 117.66406 126.61719 C 116.88877 127.03906 115.81431 127.25 114.43945 127.25 L 107.97266 127.25 L 107.97266 115.88281 z M 46.089844 116.14062 L 51.904297 116.14062 C 53.268814 116.14062 54.204412 116.24219 54.710938 116.44531 C 55.496569 116.77344 56.126049 117.45313 56.601562 118.48438 C 57.087413 119.5 57.330078 120.72656 57.330078 122.16406 C 57.330078 124.14844 56.922112 125.6875 56.105469 126.78125 C 55.288826 127.875 53.910201 128.42187 51.966797 128.42188 L 46.089844 128.42188 L 46.089844 116.14062 z M 389.35742 116.14062 L 394.13477 116.14062 C 395.92311 116.14062 397.21908 116.375 398.02539 116.84375 C 399.14181 117.5 400.08799 118.79688 400.86328 120.73438 C 401.64891 122.65625 402.04102 125.41406 402.04102 129.00781 C 402.04102 131.60156 401.84065 133.8125 401.4375 135.64062 C 401.04468 137.45312 400.49061 138.89844 399.77734 139.97656 C 399.27082 140.74219 398.58846 141.33594 397.73047 141.75781 C 396.88281 142.17969 395.70984 142.39062 394.21094 142.39062 L 389.35742 142.39062 L 389.35742 116.14062 z "
         style="font-style:normal;font-variant:normal;font-weight:normal;font-stretch:normal;font-size:42.95987701px;line-height:1.25;font-family:Arial;-inkscape-font-specification:Arial;letter-spacing:0px;word-spacing:0px;fill:#000000;fill-opacity:1;stroke:none;stroke-width:1.0739969" />
    </g>
  </g>
</svg>
